<svg xmlns="http://www.w3.org/2000/svg" width="143.79" height="33.277" viewBox="0 0 143.79 33.277">
  <g id="Group_125" data-name="Group 125" transform="translate(-1746.849 -43)">
    <path id="account" d="M20.639,4a8.319,8.319,0,1,1-8.319,8.319A8.319,8.319,0,0,1,20.639,4m0,20.8c9.193,0,16.639,3.723,16.639,8.319v4.16H4v-4.16C4,28.521,11.446,24.8,20.639,24.8Z" transform="translate(1853.361 39)" fill="gray"/>
    <path id="bell" d="M30.252,27.738v1.514H3V27.738L6.028,24.71V15.626A10.583,10.583,0,0,1,13.6,5.467V5.028a3.028,3.028,0,0,1,6.056,0v.439a10.583,10.583,0,0,1,7.57,10.159V24.71l3.028,3.028m-10.6,3.028a3.028,3.028,0,0,1-6.056,0" transform="translate(1802.374 42)" fill="gray"/>
    <path id="view-dashboard" d="M20.105,3V13.263H33.79V3M20.105,33.79H33.79V16.684H20.105M3,33.79H16.684V23.527H3m0-3.421H16.684V3H3Z" transform="translate(1743.849 42)" fill="gray"/>
  </g>
</svg>
