<svg xmlns="http://www.w3.org/2000/svg" width="319.683" height="34.162" viewBox="0 0 319.683 34.162">
  <g id="Group_124" data-name="Group 124" transform="translate(-1389.126 -47)">
    <path id="delete" d="M30.32,4.809H23.99L22.182,3H13.139L11.33,4.809H5V8.426H30.32M6.809,31.938a3.617,3.617,0,0,0,3.617,3.617H24.895a3.617,3.617,0,0,0,3.617-3.617v-21.7H6.809Z" transform="translate(1627.063 45)" fill="gray"/>
    <path id="view-list" d="M14.275,5v8.22h24.66V5M14.275,33.77h24.66V25.55H14.275m0-2.055h24.66v-8.22H14.275M4,13.22h8.22V5H4M4,33.77h8.22V25.55H4m0-2.055h8.22v-8.22H4Z" transform="translate(1566.661 44)" fill="gray"/>
    <path id="chevron-right" d="M8.59,35.548,21.384,22.757,8.59,9.938,12.529,6l16.76,16.757L12.529,39.514Z" transform="translate(1413.493 41)" fill="gray"/>
    <path id="chevron-left" d="M28.695,35.548,15.9,22.757,28.695,9.938,24.757,6,8,22.757,24.757,39.514Z" transform="translate(1381.126 41)" fill="gray"/>
    <path id="image-multiple" d="M36.162,25.913V5.416A3.416,3.416,0,0,0,32.745,2h-20.5A3.416,3.416,0,0,0,8.832,5.416v20.5a3.416,3.416,0,0,0,3.416,3.416h20.5a3.416,3.416,0,0,0,3.416-3.416M17.373,19.081,20.84,23.71l5.073-6.337,6.832,8.54h-20.5M2,8.832V32.745a3.416,3.416,0,0,0,3.416,3.416H29.329V32.745H5.416V8.832" transform="translate(1462.919 45)" fill="gray"/>
    <path id="filmstrip" d="M26.835,12.786H23.573V9.524h3.262m0,9.786H23.573V16.048h3.262m0,9.786H23.573V22.573h3.262m-16.31-9.786H7.262V9.524h3.262m0,9.786H7.262V16.048h3.262m0,9.786H7.262V22.573h3.262M26.835,3V6.262H23.573V3H10.524V6.262H7.262V3H4V32.359H7.262V29.1h3.262v3.262H23.573V29.1h3.262v3.262H30.1V3Z" transform="translate(1521.952 46)" fill="gray"/>
    <path id="plus-box_2_" data-name="plus-box (2)" d="M24.629,18.449h-6.18v6.18h-3.09v-6.18H9.18v-3.09h6.18V9.18h3.09v6.18h6.18M27.719,3H6.09A3.079,3.079,0,0,0,3,6.09V27.719a3.09,3.09,0,0,0,3.09,3.09H27.719a3.09,3.09,0,0,0,3.09-3.09V6.09A3.089,3.089,0,0,0,27.719,3Z" transform="translate(1678 47)" fill="gray"/>
  </g>
</svg>
