<svg xmlns="http://www.w3.org/2000/svg" width="24.535" height="18.401" viewBox="0 0 24.535 18.401">
  <path id="account-multiple" d="M19.174,19.948V22.4H2V19.948s0-4.907,8.587-4.907,8.587,4.907,8.587,4.907M14.881,8.294a4.294,4.294,0,1,0-4.294,4.294,4.294,4.294,0,0,0,4.294-4.294m4.22,6.747a6.526,6.526,0,0,1,2.527,4.907V22.4h4.907V19.948s0-4.453-7.434-4.907M17.948,4a4.159,4.159,0,0,0-2.368.724,6.134,6.134,0,0,1,0,7.14,4.159,4.159,0,0,0,2.368.724,4.294,4.294,0,0,0,0-8.587Z" transform="translate(-2 -4)"/>
</svg>
