<svg xmlns="http://www.w3.org/2000/svg" width="23.618" height="23.618" viewBox="0 0 23.618 23.618">
  <path id="cart" d="M19.894,20.894a2.362,2.362,0,1,0,2.362,2.362,2.354,2.354,0,0,0-2.362-2.362M1,2V4.362H3.362l4.251,8.963L6.007,16.218a2.407,2.407,0,0,0-.283,1.134,2.362,2.362,0,0,0,2.362,2.362H22.256V17.352H8.581a.3.3,0,0,1-.3-.3.252.252,0,0,1,.035-.142L9.384,14.99h8.8a2.374,2.374,0,0,0,2.067-1.216l4.228-7.64a1.494,1.494,0,0,0,.142-.59,1.181,1.181,0,0,0-1.181-1.181H5.972L4.862,2M8.085,20.894a2.362,2.362,0,1,0,2.362,2.362A2.354,2.354,0,0,0,8.085,20.894Z" transform="translate(-1 -2)"/>
</svg>
