<svg xmlns="http://www.w3.org/2000/svg" width="86.112" height="25.104" viewBox="0 0 86.112 25.104">
  <g id="Group_209" data-name="Group 209" transform="translate(-1793.99 -364)">
    <path id="delete" d="M24.525,4.395H19.644L18.249,3H11.276L9.881,4.395H5V7.184H24.525M6.395,25.315A2.789,2.789,0,0,0,9.184,28.1H20.341a2.789,2.789,0,0,0,2.789-2.789V8.579H6.395Z" transform="translate(1855.577 361)"/>
    <path id="alert" d="M15.169,16.169H12.808v-5.9h2.362m0,10.627H12.808V18.531h2.362M1,24.434H26.977L13.988,2Z" transform="translate(1823.012 363)" fill="#9dc940"/>
    <path id="pencil" d="M23.523,7.682a1.154,1.154,0,0,0,0-1.634L20.811,3.336a1.154,1.154,0,0,0-1.634,0L17.045,5.457,21.391,9.8M3,19.514V23.86H7.346L20.163,11.031,15.817,6.686Z" transform="translate(1790.99 363.003)"/>
  </g>
</svg>
